Coordinates
version=1
nRows=5
nColumns=42
inDegrees=yes

Units are S.I. units (second, meters, Newtons, ...)
If the header above contains a line with 'inDegrees', this indicates whether rotational values are in degrees (yes) or radians (no).

endheader
time	pelvis_tilt	pelvis_list	pelvis_rotation	pelvis_tx	pelvis_ty	pelvis_tz	hip_flexion_r	hip_adduction_r	hip_rotation_r	knee_angle_r	knee_adduction_r	knee_angle_r_beta	ankle_angle_r	subtalar_angle_r	mtp_angle_r	hip_flexion_l	hip_adduction_l	hip_rotation_l	knee_angle_l	knee_adduction_l	knee_angle_l_beta	ankle_angle_l	subtalar_angle_l	mtp_angle_l	lumbar_extension	lumbar_bending	lumbar_rotation	arm_flex_r	arm_add_r	arm_rot_r	elbow_flex_r	pro_sup_r	wrist_flex_r	wrist_dev_r	arm_flex_l	arm_add_l	arm_rot_l	elbow_flex_l	pro_sup_l	wrist_flex_l	wrist_dev_l
      2.43000000	     11.76292266	      4.32399008	      3.53626716	      0.62480875	      0.93298166	     -0.28488832	      4.75782457	     -5.19642606	     -1.02102820	     62.06841887	      4.27199074	      1.08329827	      5.11410924	    -14.71052414	     -7.50513686	      0.50747585	      8.93664015	    -24.20943014	     24.47184246	     -7.57605316	      0.42711422	     20.61270657	     20.35461162	     -7.50513686	    -43.42484913	     -7.56631244	     -2.17724863	      2.25370189	     -8.90617222	     10.39933185	     40.14797215	     90.00000001	      0.00000000	      0.00000000	     -2.29368537	    -15.07309848	     20.09139527	     50.68574190	     90.00000001	      0.00000000	      0.00000000
      2.44000000	     11.69161874	      4.28832826	      3.53959625	      0.62895879	      0.93320947	     -0.28512949	      6.03266960	     -5.04404393	     -0.95852384	     61.70294471	      3.74128568	      1.07691954	      5.81711170	    -14.83520048	     -7.50506976	      0.13696696	      8.90227198	    -24.53559397	     24.17279727	     -7.61811149	      0.42189490	     20.78713591	     20.58119758	     -7.50506976	    -43.45265883	     -7.46289653	     -2.20819054	      2.30374638	     -8.85249101	     10.42711186	     40.19661802	     90.00000001	      0.00000000	      0.00000000	     -2.21344980	    -15.08562605	     20.10114832	     50.60196347	     90.00000001	      0.00000000	      0.00000000
      2.45000000	     11.56795801	      4.29805726	      3.57466317	      0.63319826	      0.93330246	     -0.28543390	      7.30685148	     -4.98002622	     -0.88576237	     61.16556436	      3.31267542	      1.06754049	      6.42246757	    -14.86327693	     -7.50501278	     -0.18255420	      8.93549443	    -24.86527679	     23.86010023	     -7.68333795	      0.41643731	     20.90193618	     20.86632319	     -7.50501278	    -43.41070847	     -7.38539650	     -2.30443409	      2.29670017	     -8.77701915	     10.44032515	     40.27378955	     90.00000001	      0.00000000	      0.00000000	     -2.19838370	    -15.12492889	     20.12436570	     50.50902987	     90.00000001	      0.00000000	      0.00000000
      2.46000000	     11.63091320	      4.33813039	      3.42476786	      0.63776785	      0.93365240	     -0.28546846	      8.32001094	     -4.94585183	     -0.67140380	     60.47579258	      2.97078672	      1.05550170	      7.30427507	    -14.65895787	     -7.50480939	     -0.75541888	      8.92537649	    -26.25414953	     23.35027983	     -8.00687011	      0.40753926	     21.16040705	     23.63888911	     -7.50480939	    -43.50250725	     -7.41555601	     -2.22855882	      2.25550717	     -8.74158223	     10.37582918	     40.41373341	     90.00000001	      0.00000000	      0.00000000	     -2.16124651	    -15.13552493	     20.23712695	     50.32354195	     90.00000001	      0.00000000	      0.00000000
      2.47000000	     11.50897391	      4.35438595	      3.44434544	      0.64202718	      0.93372305	     -0.28571290	      9.49844023	     -4.82574349	     -0.60252029	     59.64029175	      2.49257191	      1.04091946	      7.85002232	    -14.83443760	     -7.50474997	     -1.07696478	      9.01741953	    -26.46693461	     23.03535277	     -8.10594671	      0.40204275	     21.34567263	     23.69798955	     -7.50474997	    -43.44986884	     -7.34294063	     -2.28826831	      2.26826402	     -8.70480898	     10.39023311	     40.45152376	     90.00000001	      0.00000000	      0.00000000	     -2.17707401	    -15.15573280	     20.24495924	     50.25069869	     90.00000001	      0.00000000	      0.00000000
